#!OML:ASF E:\emotionWalksFemale\Project 1\Capture day 1\Session 1\Female1.ASF
:FULLY-SPECIFIED
:DEGREES
1622
root -7.2783 15.1162 5.7059 906.732 -184.004 -541.245
lowerback 9.22275 -0.539899 3.02441
upperback -4.09407 0.00546976 3.65434
thorax -9.57576 -0.0494442 2.20665
lowerneck -3.30915 -0.521761 -0.0830006
upperneck 2.43738 -0.478 -6.85388
head 1.31585 -0.358138 -2.16269
rclavicle 5.46658e-015 -3.02153e-014
rhumerus -45.4356 -11.9212 -61.9725
rradius 27.177
rwrist 32.7541
rhand -7.61353 -60.3694
rfingers 7.12502
rthumb -161.719 90.4697
lclavicle 5.46658e-015 -3.02153e-014
lhumerus -29.0384 -40.2234 104.348
lradius 81.2599
lwrist 0.96105
lhand -1.47186 -30.0305
lfingers 7.12502
lthumb 24.1799 -1.53469
rfemur -38.4286 9.7038 12.1738
rtibia 32.9704
rfoot -19.7639 -29.745
rtoes -15.211
lfemur 19.8339 -18.3563 -38.0637
ltibia -3.18055e-015
lfoot -7.51641 7.13868
ltoes 25.9304
1623
root -7.329 15.1098 5.86584 907.075 -184.574 -540.746
lowerback 9.05472 -0.59958 2.64673
upperback -4.48821 -0.127298 3.51759
thorax -9.90584 -0.0953554 2.30367
lowerneck -2.91344 -0.636314 -0.576284
upperneck 2.64527 -0.617909 -6.50015
head 1.30566 -0.424906 -1.96028
rclavicle -1.28216e-014 -3.18055e-015
rhumerus -46.0714 -11.2611 -61.663
rradius 27.3548
rwrist 32.1987
rhand -7.48036 -60.3172
rfingers 7.12502
rthumb -161.591 90.5338
lclavicle -1.28216e-014 -3.18055e-015
lhumerus -29.312 -40.3253 104.805
lradius 81.879
lwrist 0.934825
lhand -1.40221 -29.6595
lfingers 7.12502
lthumb 24.2466 -1.17252
rfemur -38.6231 11.3567 10.7567
rtibia 31.6295
rfoot -20.6807 -32.3476
rtoes -12.2782
lfemur 20.1539 -18.1984 -38.2108
ltibia -5.08889e-014
lfoot -6.97162 6.7385
ltoes 26.3494
1624
root -7.37744 15.1034 6.03158 907.442 -185.279 -540.237
lowerback 8.35648 -0.717491 2.20095
upperback -4.50473 -0.379823 3.48248
thorax -9.49967 -0.19101 2.54406
lowerneck -2.73349 -0.77904 -0.974358
upperneck 2.3996 -0.81431 -6.4301
head 1.18968 -0.516437 -1.86618
rclavicle 9.44227e-016 -1.43125e-014
rhumerus -46.0963 -10.8508 -61.2325
rradius 27.5144
rwrist 32.1889
rhand -7.48181 -59.9932
rfingers 7.12502
rthumb -161.593 90.8577
lclavicle 9.44227e-016 -1.43125e-014
lhumerus -28.8155 -40.3205 104.655
lradius 82.5063
lwrist 0.966607
lhand -1.31996 -29.5397
lfingers 7.12502
lthumb 24.3255 -1.06335
rfemur -38.703 12.8536 9.37802
rtibia 30.5327
rfoot -22.1771 -34.6197
rtoes -7.79975
lfemur 20.4696 -18.1759 -38.3652
ltibia 0
lfoot -6.22825 6.29344
ltoes 26.006
1625
root -7.42659 15.0992 6.19853 907.676 -185.98 -539.825
lowerback 7.95445 -0.789043 1.87807
upperback -4.48198 -0.537583 3.44062
thorax -9.2284 -0.249979 2.6954
lowerneck -2.94354 -0.954382 -1.39807
upperneck 2.39412 -1.03045 -6.2328
head 1.21857 -0.62859 -1.73432
rclavicle -4.62174e-015 2.54444e-014
rhumerus -46.0792 -10.6086 -60.7921
rradius 27.7336
rwrist 32.1253
rhand -7.82863 -59.9331
rfingers 7.12502
rthumb -161.926 90.8866
lclavicle -4.62174e-015 2.54444e-014
lhumerus -28.5074 -40.2544 104.707
lradius 82.9903
lwrist 0.890854
lhand -1.29994 -29.627
lfingers 7.12502
lthumb 24.3447 -1.15317
rfemur -38.5333 14.2061 8.29499
rtibia 29.5609
rfoot -23.9651 -36.3665
rtoes -3.82097
lfemur 20.8914 -18.1015 -38.4481
ltibia 1.27222e-014
lfoot -5.47667 6.1076
ltoes 23.4792
1626
root -7.47442 15.0952 6.37321 907.852 -186.609 -539.618
lowerback 7.5566 -0.818651 1.82134
upperback -4.38019 -0.605524 3.4252
thorax -8.87932 -0.281968 2.70749
lowerneck -3.82606 -1.08456 -1.95378
upperneck 2.80749 -1.1322 -5.8541
head 1.50373 -0.703677 -1.53389
rclavicle 1.13804e-014 -3.81667e-014
rhumerus -45.8966 -10.4776 -60.4519
rradius 27.788
rwrist 31.7399
rhand -8.45663 -60.1285
rfingers 7.12502
rthumb -162.531 90.6364
lclavicle 1.13804e-014 -3.81667e-014
lhumerus -28.3231 -40.2276 104.987
lradius 83.3772
lwrist 0.877507
lhand -1.49466 -29.5037
lfingers 7.12502
lthumb 24.158 -1.00493
rfemur -38.299 15.3498 7.65896
rtibia 28.8423
rfoot -25.216 -37.7748
rtoes -2.10084
lfemur 21.3912 -17.9307 -38.3108
ltibia 0
lfoot -4.8291 6.08565
ltoes 18.5168
1627
root -7.52105 15.0837 6.55013 908.107 -187.238 -539.437
lowerback 7.06414 -0.911252 1.78335
upperback -4.55536 -0.749124 3.39993
thorax -8.77508 -0.350854 2.71531
lowerneck -3.67068 -1.16987 -2.35346
upperneck 2.93321 -1.23474 -5.56941
head 1.51588 -0.754653 -1.37624
rclavicle 1.30204e-014 -4.6118e-014
rhumerus -46.2235 -10.0229 -60.0986
rradius 27.8218
rwrist 31.5328
rhand -9.04841 -60.0281
rfingers 7.12502
rthumb -163.1 90.6872
lclavicle 1.30204e-014 -4.6118e-014
lhumerus -28.8964 -39.9579 105.507
lradius 83.8022
lwrist 0.970826
lhand -1.5246 -29.5099
lfingers 7.12502
lthumb 24.1293 -1.00734
rfemur -38.1406 16.6942 6.94719
rtibia 28.2181
rfoot -26.034 -39.0403
rtoes -0.0893283
lfemur 21.8099 -17.7939 -38.0797
ltibia 0
lfoot -4.08873 5.8773
ltoes 15.0922
1628
root -7.56318 15.0988 6.72764 908.323 -187.845 -539.314
lowerback 6.69725 -1.05011 1.70108
upperback -4.84371 -0.947247 3.40796
thorax -8.86513 -0.441163 2.79748
lowerneck -2.78786 -1.2619 -2.6235
upperneck 2.74552 -1.40182 -5.40252
head 1.29968 -0.819457 -1.26791
rclavicle 1.34428e-014 9.54166e-015
rhumerus -46.7211 -9.34059 -59.761
rradius 27.8586
rwrist 31.6251
rhand -9.53024 -59.8764
rfingers 7.12502
rthumb -163.564 90.7999
lclavicle 1.34428e-014 9.54166e-015
lhumerus -29.6043 -39.5559 105.897
lradius 84.1132
lwrist 1.41243
lhand -1.30819 -29.593
lfingers 7.12502
lthumb 24.3368 -1.11811
rfemur -37.705 17.4118 6.84469
rtibia 27.8734
rfoot -26.2689 -39.2145
rtoes 2.29574
lfemur 22.1389 -17.6415 -37.7159
ltibia 1.27222e-014
lfoot -3.12637 5.33416
ltoes 16.0787
1629
root -7.6069 15.1079 6.90975 908.397 -188.404 -539.256
lowerback 6.47132 -1.1374 1.63787
upperback -4.70886 -1.07711 3.50548
thorax -8.57787 -0.499398 2.94309
lowerneck -3.45853 -1.41573 -3.10649
upperneck 2.96011 -1.54556 -5.23445
head 1.48663 -0.909357 -1.14673
rclavicle 2.31584e-014 3.18055e-015
rhumerus -46.3135 -8.88233 -59.5298
rradius 27.6948
rwrist 31.6627
rhand -10.1428 -59.6641
rfingers 7.12502
rthumb -164.154 90.9644
lclavicle 2.31584e-014 3.18055e-015
lhumerus -29.4005 -39.1527 105.88
lradius 84.2098
lwrist 1.94164
lhand -1.20089 -29.5813
lfingers 7.12502
lthumb 24.4396 -1.12031
rfemur -37.1364 17.8887 7.00895
rtibia 27.6689
rfoot -25.5371 -38.856
rtoes 3.42965
lfemur 22.5946 -17.4055 -37.297
ltibia -1.59028e-014
lfoot -1.96905 4.46756
ltoes 17.5078
1630
root -7.6493 15.1193 7.08991 908.396 -188.938 -539.138
lowerback 6.30034 -1.19357 1.59173
upperback -4.77429 -1.16051 3.51247
thorax -8.54416 -0.537158 2.98444
lowerneck -3.21873 -1.58296 -3.35767
upperneck 2.90695 -1.77361 -5.20366
head 1.42662 -1.02031 -1.09603
rclavicle -2.48978e-014 4.77083e-015
rhumerus -46.5026 -8.18769 -59.3604
rradius 27.7084
rwrist 31.6029
rhand -10.8419 -59.3561
rfingers 7.12502
rthumb -164.827 91.2202
lclavicle -2.48978e-014 4.77083e-015
lhumerus -30.4267 -38.2728 106.64
lradius 84.1984
lwrist 1.85618
lhand -1.19152 -29.8497
lfingers 7.12502
lthumb 24.4486 -1.38992
rfemur -36.4071 18.1637 7.3046
rtibia 27.7458
rfoot -24.1381 -37.8313
rtoes 3.84764
lfemur 23.1592 -17.1366 -36.9486
ltibia 3.18055e-015
lfoot -1.05986 3.54479
ltoes 12.9348
1631
root -7.68926 15.1212 7.26607 908.303 -189.442 -539.17
lowerback 6.59322 -1.15885 1.882
upperback -4.70725 -1.07256 3.52715
thorax -8.65304 -0.509947 2.8322
lowerneck -4.16272 -1.81888 -3.78241
upperneck 3.28699 -1.99456 -5.08986
head 1.71816 -1.15805 -1.01191
rclavicle -2.18166e-014 2.70347e-014
rhumerus -46.4096 -7.89092 -59.0931
rradius 27.7598
rwrist 31.5375
rhand -11.3281 -59.1377
rfingers 7.12502
rthumb -165.296 91.4038
lclavicle -2.18166e-014 2.70347e-014
lhumerus -30.6402 -37.7663 107.072
lradius 83.7468
lwrist 1.90012
lhand -1.33646 -29.9615
lfingers 7.12502
lthumb 24.3097 -1.48296
rfemur -35.7902 18.7537 7.52846
rtibia 27.8508
rfoot -21.712 -36.835
rtoes 4.5152
lfemur 23.8256 -16.8064 -36.4612
ltibia 4.45278e-014
lfoot 1.77291 2.12202
ltoes 15.9607
1632
root -7.72155 15.1418 7.46088 908.149 -189.775 -539.448
lowerback 6.52979 -1.11656 2.42596
upperback -4.95384 -0.957573 3.43251
thorax -8.90067 -0.4889 2.41645
lowerneck -3.28477 -1.99228 -3.86804
upperneck 3.29743 -2.28147 -4.89433
head 1.56591 -1.28615 -0.930575
rclavicle 2.47984e-014 6.36111e-015
rhumerus -47.1603 -7.25615 -59.0628
rradius 27.8352
rwrist 31.4439
rhand -11.4696 -58.8842
rfingers 7.12502
rthumb -165.432 91.6474
lclavicle 2.47984e-014 6.36111e-015
lhumerus -31.8041 -37.1538 107.751
lradius 83.1632
lwrist 2.18927
lhand -1.38954 -29.7676
lfingers 7.12502
lthumb 24.2588 -1.28229
rfemur -35.047 18.487 8.47436
rtibia 28.1232
rfoot -18.9683 -34.8503
rtoes 6.50651
lfemur 24.4405 -16.2936 -35.7038
ltibia 2.8625e-014
lfoot 3.47044 1.31198
ltoes 10.7549
1633
root -7.75295 15.1856 7.64864 908.087 -189.842 -540
lowerback 6.65334 -0.717972 3.32828
upperback -4.9653 -0.335714 3.20718
thorax -9.0102 -0.250145 1.58513
lowerneck -3.86622 -2.41578 -3.7125
upperneck 3.80922 -2.80886 -4.54676
head 1.83344 -1.56167 -0.877268
rclavicle -4.72114e-015 1.43125e-014
rhumerus -47.6913 -7.86234 -58.8796
rradius 27.7199
rwrist 31.7847
rhand -11.4755 -58.8079
rfingers 7.12502
rthumb -165.438 91.7232
lclavicle -4.72114e-015 1.43125e-014
lhumerus -32.6457 -37.3732 108.226
lradius 82.5334
lwrist 2.57204
lhand -0.977874 -29.7073
lfingers 7.12502
lthumb 24.6534 -1.27532
rfemur -34.4796 18.0077 9.81764
rtibia 28.3935
rfoot -16.6863 -32.87
rtoes 9.30469
lfemur 24.7318 -15.5681 -34.5348
ltibia -6.36111e-015
lfoot 5.22233 0.466336
ltoes 4.55995
